<?xml version="1.0" encoding="utf-8"?>
<svg version="1.2" viewBox="0 0 1024 1024" width="1024" height="1024" xmlns="http://www.w3.org/2000/svg" xmlns:bx="https://boxy-svg.com">
  <style>tspan{white-space:pre}.a{fill:#00d9c5}.b{font-size: 24px;fill: #ffffff;font-weight: 800;font-family: "OpenSans-Extrabold", "Open Sans"}</style>
  <path class="a" d="m919.2 673.2c0 0-1.3-8.3-2.1-8.3l-150.6 14.6c-12 1.1-21.3 10.7-22.1 22.7l-4.2 59.3-116.5 8.3-7.9-53.7c-1.8-12-12.2-21-24.3-21h-159c-12.1 0-22.5 9-24.3 21l-7.9 53.7-116.5-8.3-4.2-59.3c-0.8-12-10.1-21.6-22.1-22.7l-150.7-14.6c-0.8 0-1.3 8.3-2.1 8.3l-0.2 32.6 127.6 20.5 4.2 59.9c0.8 12.1 10.6 21.9 22.7 22.7l160.5 11.5q0.9 0.1 1.8 0.1c12.1 0 22.5-9.1 24.3-21l8.1-55.3h116.6l8.1 55.3c1.8 11.9 12.2 21 24.3 21q0.9 0 1.8-0.1l160.5-11.5c12.1-0.8 21.9-10.6 22.7-22.7l4.2-59.9 127.5-20.6z"/>
  <path class="a" d="m104.7 427.4v197.8 25.1 22.9q0.7 0 1.3 0l150.7 14.5c7.9 0.8 14.1 7.2 14.6 15.1l4.7 66.5 131.4 9.4 9.1-61.4c1.1-8 8-13.9 16-13.9h159c8 0 14.9 5.9 16 13.9l9.1 61.4 131.4-9.4 4.7-66.5c0.5-7.9 6.7-14.3 14.6-15.1l150.6-14.5q0.7 0 1.3 0v-19.7h0.1v-226.1c21.2-26.7 41.3-56.2 56.7-81-23.5-40-52.3-75.8-83.2-109-28.5 14.4-56.3 30.7-82.5 48.1-13.1-13.1-27.9-23.7-42.4-34.9-14.2-11.4-30.3-19.8-45.6-29.6 4.6-33.8 6.8-67.1 7.7-101.8-39.3-19.8-81.2-32.9-123.6-42.3-17 28.4-32.4 59.3-45.9 89.4-16-2.7-32.1-3.7-48.2-3.9q-0.2 0-0.3 0-0.1 0-0.3 0c-16.1 0.2-32.2 1.2-48.2 3.9-13.5-30.1-28.9-61-45.9-89.4-42.4 9.4-84.3 22.5-123.6 42.3 0.9 34.7 3.1 68 7.7 101.8-15.3 9.8-31.3 18.2-45.6 29.6-14.5 11.2-29.3 21.8-42.4 34.9-26.2-17.4-54-33.7-82.6-48.1-30.8 33.2-59.6 69-83.1 109 18.5 29.1 38.3 58.2 56.7 81z"/>
  <path class="a" d="m784.1 718.7l-4.7 66.9c-0.6 8-7 14.5-15 15l-160.5 11.5q-0.6 0-1.2 0c-8 0-14.8-5.8-16-13.8l-9.2-62.4h-131l-9.2 62.4c-1.2 8.4-8.7 14.4-17.2 13.8l-160.5-11.5c-8-0.5-14.4-7-15-15l-4.7-66.9-135.4-13c0 14.5 0.2 30.5 0.2 33.6 0 143.1 181.5 211.9 407 212.7h0.3 0.3c225.5-0.8 406.9-69.6 406.9-212.7 0-3.2 0.2-19.1 0.3-33.6z" style=""/>
  <path d="M 410.324 524.865 L 405.788 524.865 Q 405.256 524.865 405.018 524.627 Q 404.78 524.389 404.78 523.857 L 404.78 510.109 L 400.664 510.109 Q 400.132 510.109 399.894 509.871 Q 399.656 509.633 399.656 509.101 L 399.656 505.713 Q 399.656 505.181 399.894 504.943 Q 400.132 504.705 400.664 504.705 L 415.448 504.705 Q 415.98 504.705 416.218 504.943 Q 416.456 505.181 416.456 505.713 L 416.456 509.101 Q 416.456 509.633 416.218 509.871 Q 415.98 510.109 415.448 510.109 L 411.332 510.109 L 411.332 523.857 Q 411.332 524.389 411.094 524.627 Q 410.856 524.865 410.324 524.865 Z M 430.614 524.865 L 421.178 524.865 Q 420.646 524.865 420.408 524.627 Q 420.17 524.389 420.17 523.857 L 420.17 505.713 Q 420.17 505.181 420.408 504.943 Q 420.646 504.705 421.178 504.705 L 430.614 504.705 Q 434.114 504.705 435.808 506.105 Q 437.502 507.505 437.502 510.417 L 437.502 519.153 Q 437.502 522.065 435.808 523.465 Q 434.114 524.865 430.614 524.865 Z M 426.526 510.053 L 426.526 519.573 L 429.858 519.573 Q 430.53 519.573 430.852 519.237 Q 431.174 518.901 431.174 518.201 L 431.174 511.397 Q 431.174 510.697 430.852 510.375 Q 430.53 510.053 429.858 510.053 Z M 451.41 524.865 L 442.562 524.865 Q 442.03 524.865 441.792 524.627 Q 441.554 524.389 441.554 523.857 L 441.554 520.581 Q 441.554 520.049 441.792 519.811 Q 442.03 519.573 442.562 519.573 L 450.094 519.573 Q 450.458 519.573 450.64 519.335 Q 450.822 519.097 450.822 518.761 Q 450.822 518.285 450.64 518.061 Q 450.458 517.837 450.094 517.809 L 445.894 517.221 Q 443.934 516.941 442.744 515.933 Q 441.554 514.925 441.554 512.573 L 441.554 509.633 Q 441.554 507.253 443.094 505.979 Q 444.634 504.705 447.35 504.705 L 455.19 504.705 Q 455.722 504.705 455.96 504.943 Q 456.198 505.181 456.198 505.713 L 456.198 509.045 Q 456.198 509.577 455.96 509.815 Q 455.722 510.053 455.19 510.053 L 448.666 510.053 Q 448.302 510.053 448.106 510.291 Q 447.91 510.529 447.91 510.893 Q 447.91 511.257 448.106 511.509 Q 448.302 511.761 448.666 511.789 L 452.838 512.349 Q 454.798 512.629 456.002 513.637 Q 457.206 514.645 457.206 516.997 L 457.206 519.937 Q 457.206 522.317 455.652 523.591 Q 454.098 524.865 451.41 524.865 Z" transform="matrix(10.585998, 0, 0, 9.81197, -4022.45172, -4431.006414)" style="fill: rgb(255, 255, 255); paint-order: fill; stroke-dasharray: 4px; stroke-linecap: round; stroke-miterlimit: 13.37; stroke-width: 2.74332px;"/>
</svg>