<svg version="1.2" xmlns="http://www.w3.org/2000/svg" viewBox="0 0 1024 1024" width="1024" height="1024"><style>tspan{white-space:pre}.a{fill:#00d9c5}.b{font-size: 24px;fill: #ffffff;font-weight: 800;font-style: italic;font-family: "OpenSans-ExtraboldItalic", "Open Sans"}</style><path class="a" d="m919.2 673.2c0 0-1.3-8.3-2.1-8.3l-150.6 14.6c-12 1.1-21.3 10.7-22.1 22.7l-4.2 59.3-116.5 8.3-7.9-53.7c-1.8-12-12.2-21-24.3-21h-159c-12.1 0-22.5 9-24.3 21l-7.9 53.7-116.5-8.3-4.2-59.3c-0.8-12-10.1-21.6-22.1-22.7l-150.7-14.6c-0.8 0-1.3 8.3-2.1 8.3l-0.2 32.6 127.6 20.5 4.2 59.9c0.8 12.1 10.6 21.9 22.7 22.7l160.5 11.5q0.9 0.1 1.8 0.1c12.1 0 22.5-9.1 24.3-21l8.1-55.3h116.6l8.1 55.3c1.8 11.9 12.2 21 24.3 21q0.9 0 1.8-0.1l160.5-11.5c12.1-0.8 21.9-10.6 22.7-22.7l4.2-59.9 127.5-20.6z"/><path class="a" d="m104.7 427.4v197.8 25.1 22.9q0.7 0 1.3 0l150.7 14.5c7.9 0.8 14.1 7.2 14.6 15.1l4.7 66.5 131.4 9.4 9.1-61.4c1.1-8 8-13.9 16-13.9h159c8 0 14.9 5.9 16 13.9l9.1 61.4 131.4-9.4 4.7-66.5c0.5-7.9 6.7-14.3 14.6-15.1l150.6-14.5q0.7 0 1.3 0v-19.7h0.1v-226.1c21.2-26.7 41.3-56.2 56.7-81-23.5-40-52.3-75.8-83.2-109-28.5 14.4-56.3 30.7-82.5 48.1-13.1-13.1-27.9-23.7-42.4-34.9-14.2-11.4-30.3-19.8-45.6-29.6 4.6-33.8 6.8-67.1 7.7-101.8-39.3-19.8-81.2-32.9-123.6-42.3-17 28.4-32.4 59.3-45.9 89.4-16-2.7-32.1-3.7-48.2-3.9q-0.2 0-0.3 0-0.1 0-0.3 0c-16.1 0.2-32.2 1.2-48.2 3.9-13.5-30.1-28.9-61-45.9-89.4-42.4 9.4-84.3 22.5-123.6 42.3 0.9 34.7 3.1 68 7.7 101.8-15.3 9.8-31.3 18.2-45.6 29.6-14.5 11.2-29.3 21.8-42.4 34.9-26.2-17.4-54-33.7-82.6-48.1-30.8 33.2-59.6 69-83.1 109 18.5 29.1 38.3 58.2 56.7 81z"/><path class="a" d="m784.1 718.7l-4.7 66.9c-0.6 8-7 14.5-15 15l-160.5 11.5q-0.6 0-1.2 0c-8 0-14.8-5.8-16-13.8l-9.2-62.4h-131l-9.2 62.4c-1.2 8.4-8.7 14.4-17.2 13.8l-160.5-11.5c-8-0.5-14.4-7-15-15l-4.7-66.9-135.4-13c0 14.5 0.2 30.5 0.2 33.6 0 143.1 181.5 211.9 407 212.7h0.3 0.3c225.5-0.8 406.9-69.6 406.9-212.7 0-3.2 0.2-19.1 0.3-33.6z"/><text style="transform:matrix(12.316,0,0,12.902,239.861,736.842);paint-order:stroke fill markers;stroke:#000;stroke-width: 0;stroke-linejoin: round;" ><tspan x="0" y="0" class="b">TDS
</tspan></text></svg>